  0
SECTION
  2
HEADER
  9
$ACADVER
  1
AC1014
  9
$HANDSEED
  5
FFFF
  9
$MEASUREMENT
 70
     1
  0
ENDSEC
  0
SECTION
  2
TABLES
  0
TABLE
  2
VPORT
  5
8
330
0
100
AcDbSymbolTable
 70
     4
  0
VPORT
  5
2E
330
8
100
AcDbSymbolTableRecord
100
AcDbViewportTableRecord
  2
*ACTIVE
 70
     0
 10
0.0
 20
0.0
 11
1.0
 21
1.0
 12
210.0
 22
148.5
 13
0.0
 23
0.0
 14
10.0
 24
10.0
 15
10.0
 25
10.0
 16
0.0
 26
0.0
 36
1.0
 17
0.0
 27
0.0
 37
0.0
 40
341.0
 41
1.24
 42
50.0
 43
0.0
 44
0.0
 50
0.0
 51
0.0
 71
     0
 72
   100
 73
     1
 74
     3
 75
     0
 76
     0
 77
     0
 78
     0
  0
ENDTAB
  0
TABLE
  2
LTYPE
  5
5
330
0
100
AcDbSymbolTable
 70
     1
  0
LTYPE
  5
14
330
5
100
AcDbSymbolTableRecord
100
AcDbLinetypeTableRecord
  2
BYBLOCK
 70
     0
  3

 72
    65
 73
     0
 40
0.0
  0
LTYPE
  5
15
330
5
100
AcDbSymbolTableRecord
100
AcDbLinetypeTableRecord
  2
BYLAYER
 70
     0
  3

 72
    65
 73
     0
 40
0.0
  0
LTYPE
  5
16
330
5
100
AcDbSymbolTableRecord
100
AcDbLinetypeTableRecord
  2
CONTINUOUS
 70
     0
  3
Solid line
 72
    65
 73
     0
 40
0.0
  0
ENDTAB
  0
TABLE
  2
LAYER
  5
2
100
AcDbSymbolTable
 70
2
  0
LAYER
  5
50
100
AcDbSymbolTableRecord
100
AcDbLayerTableRecord
  2
0
 70
0
  6
CONTINUOUS
  0
LAYER
  5
51
100
AcDbSymbolTableRecord
100
AcDbLayerTableRecord
  2
Layer_1
 70
0
  6
CONTINUOUS
  0
ENDTAB
  0
TABLE
  2
STYLE
  5
3
330
0
100
AcDbSymbolTable
 70
     1
  0
STYLE
  5
11
330
3
100
AcDbSymbolTableRecord
100
AcDbTextStyleTableRecord
  2
STANDARD
 70
     0
 40
0.0
 41
1.0
 50
0.0
 71
     0
 42
2.5
  3
txt
  4

  0
ENDTAB
  0
TABLE
  2
VIEW
  5
6
330
0
100
AcDbSymbolTable
 70
     0
  0
ENDTAB
  0
TABLE
  2
UCS
  5
7
330
0
100
AcDbSymbolTable
 70
     0
  0
ENDTAB
  0
TABLE
  2
APPID
  5
9
330
0
100
AcDbSymbolTable
 70
     2
  0
APPID
  5
12
330
9
100
AcDbSymbolTableRecord
100
AcDbRegAppTableRecord
  2
ACAD
 70
     0
  0
ENDTAB
  0
TABLE
  2
DIMSTYLE
  5
A
330
0
100
AcDbSymbolTable
 70
     1
  0
DIMSTYLE
105
27
330
A
100
AcDbSymbolTableRecord
100
AcDbDimStyleTableRecord
  2
ISO-25
 70
     0
  3

  4

  5

  6

  7

 40
1.0
 41
2.5
 42
0.625
 43
3.75
 44
1.25
 45
0.0
 46
0.0
 47
0.0
 48
0.0
140
2.5
141
2.5
142
0.0
143
0.03937007874016
144
1.0
145
0.0
146
1.0
147
0.625
 71
     0
 72
     0
 73
     0
 74
     0
 75
     0
 76
     0
 77
     1
 78
     8
170
     0
171
     3
172
     1
173
     0
174
     0
175
     0
176
     0
177
     0
178
     0
270
     2
271
     2
272
     2
273
     2
274
     3
340
11
275
     0
280
     0
281
     0
282
     0
283
     0
284
     8
285
     0
286
     0
287
     3
288
     0
  0
ENDTAB
  0
TABLE
  2
BLOCK_RECORD
  5
1
330
0
100
AcDbSymbolTable
 70
     1
  0
BLOCK_RECORD
  5
1F
330
1
100
AcDbSymbolTableRecord
100
AcDbBlockTableRecord
  2
*MODEL_SPACE
  0
BLOCK_RECORD
  5
1B
330
1
100
AcDbSymbolTableRecord
100
AcDbBlockTableRecord
  2
*PAPER_SPACE
  0
ENDTAB
  0
ENDSEC
  0
SECTION
  2
BLOCKS
  0
BLOCK
  5
20
330
1F
100
AcDbEntity
  8
0
100
AcDbBlockBegin
  2
*MODEL_SPACE
 70
     0
 10
0.0
 20
0.0
 30
0.0
  3
*MODEL_SPACE
  1

  0
ENDBLK
  5
21
330
1F
100
AcDbEntity
  8
0
100
AcDbBlockEnd
  0
BLOCK
  5
1C
330
1B
100
AcDbEntity
 67
     1
  8
0
100
AcDbBlockBegin
  2
*PAPER_SPACE
  1

  0
ENDBLK
  5
1D
330
1B
100
AcDbEntity
 67
     1
  8
0
100
AcDbBlockEnd
  0
ENDSEC
  0
SECTION
  2
ENTITIES
  0
LWPOLYLINE
  5
100
100
AcDbEntity
  8
Layer_1
 62
7
100
AcDbPolyline
 90
148
 70
0
 10
49.555310
 20
-6.538551
 30
0.0
 10
49.555310
 20
3.168538
 30
0.0
 10
50.587746
 20
4.127078
 30
0.0
 10
51.620177
 20
5.356494
 30
0.0
 10
51.840615
 20
5.627400
 30
0.0
 10
52.345378
 20
6.980373
 30
0.0
 10
52.786796
 20
8.333318
 30
0.0
 10
53.101548
 20
9.573544
 30
0.0
 10
53.428245
 20
10.813769
 30
0.0
 10
53.889535
 20
12.843229
 30
0.0
 10
54.355309
 20
14.872667
 30
0.0
 10
54.832199
 20
16.789382
 30
0.0
 10
55.328030
 20
18.706085
 30
0.0
 10
55.520488
 20
19.157076
 30
0.0
 10
55.749921
 20
19.608065
 30
0.0
 10
55.979348
 20
24.681698
 30
0.0
 10
55.749921
 20
29.755339
 30
0.0
 10
55.520488
 20
30.206330
 30
0.0
 10
55.328030
 20
30.657319
 30
0.0
 10
54.832199
 20
32.574022
 30
0.0
 10
54.382461
 20
34.490729
 30
0.0
 10
53.945719
 20
35.279961
 30
0.0
 10
53.465643
 20
36.069192
 30
0.0
 10
53.131974
 20
36.632928
 30
0.0
 10
52.790793
 20
37.196667
 30
0.0
 10
52.308469
 20
37.873151
 30
0.0
 10
51.858497
 20
38.549635
 30
0.0
 10
51.394701
 20
39.439846
 30
0.0
 10
50.784404
 20
40.447498
 30
0.0
 10
50.473029
 20
40.910255
 30
0.0
 10
50.261830
 20
41.255570
 30
0.0
 10
49.903600
 20
41.913515
 30
0.0
 10
49.311791
 20
43.075494
 30
0.0
 10
48.867020
 20
43.848761
 30
0.0
 10
47.710468
 20
45.488449
 30
0.0
 10
47.224910
 20
46.446803
 30
0.0
 10
46.809525
 20
47.118435
 30
0.0
 10
46.343291
 20
48.133162
 30
0.0
 10
45.842679
 20
49.147889
 30
0.0
 10
45.391191
 20
49.824370
 30
0.0
 10
44.962493
 20
50.500860
 30
0.0
 10
44.626776
 20
51.158503
 30
0.0
 10
44.171320
 20
51.932500
 30
0.0
 10
43.708247
 20
52.740564
 30
0.0
 10
43.336791
 20
53.432288
 30
0.0
 10
42.901839
 20
53.996024
 30
0.0
 10
42.466889
 20
54.559760
 30
0.0
 10
42.098832
 20
55.236247
 30
0.0
 10
41.782548
 20
55.912731
 30
0.0
 10
41.327067
 20
56.701962
 30
0.0
 10
40.839909
 20
57.491191
 30
0.0
 10
40.363450
 20
58.336799
 30
0.0
 10
39.772082
 20
59.362731
 30
0.0
 10
39.460390
 20
59.982838
 30
0.0
 10
39.116243
 20
60.422628
 30
0.0
 10
38.772098
 20
60.672710
 30
0.0
 10
37.452876
 20
61.997193
 30
0.0
 10
37.166087
 20
62.184493
 30
0.0
 10
36.363080
 20
62.677572
 30
0.0
 10
35.560076
 20
63.153162
 30
0.0
 10
34.741536
 20
63.584592
 30
0.0
 10
33.264088
 20
64.483153
 30
0.0
 10
31.922215
 20
65.263636
 30
0.0
 10
31.112556
 20
65.735532
 30
0.0
 10
30.536202
 20
66.059991
 30
0.0
 10
29.772658
 20
66.368485
 30
0.0
 10
28.953262
 20
66.834671
 30
0.0
 10
28.447746
 20
67.160576
 30
0.0
 10
27.644741
 20
67.638457
 30
0.0
 10
26.841736
 20
68.089445
 30
0.0
 10
26.038731
 20
68.540437
 30
0.0
 10
25.235726
 20
69.033516
 30
0.0
 10
24.902981
 20
69.216920
 30
0.0
 10
24.386764
 20
69.523267
 30
0.0
 10
23.342928
 20
70.104490
 30
0.0
 10
22.482565
 20
70.569888
 30
0.0
 10
21.679560
 20
71.020879
 30
0.0
 10
20.876555
 20
71.471439
 30
0.0
 10
20.207432
 20
71.805973
 30
0.0
 10
19.398746
 20
72.307869
 30
0.0
 10
17.388074
 20
72.523509
 30
0.0
 10
15.379366
 20
72.162875
 30
0.0
 10
14.273566
 20
71.791885
 30
0.0
 10
13.305365
 20
71.479383
 30
0.0
 10
11.355209
 20
71.020879
 30
0.0
 10
9.405055
 20
70.564489
 30
0.0
 10
7.684522
 20
70.133477
 30
0.0
 10
5.824212
 20
69.313308
 30
0.0
 10
5.502317
 20
68.765929
 30
0.0
 10
5.080262
 20
68.089445
 30
0.0
 10
4.623832
 20
67.412962
 30
0.0
 10
4.273999
 20
66.890808
 30
0.0
 10
3.003097
 20
65.017172
 30
0.0
 10
2.503667
 20
63.833323
 30
0.0
 10
2.054812
 20
62.903070
 30
0.0
 10
1.584600
 20
62.170210
 30
0.0
 10
1.040548
 20
61.163309
 30
0.0
 10
0.457284
 20
60.492325
 30
0.0
 10
0.406075
 20
57.071309
 30
0.0
 10
0.819969
 20
55.962345
 30
0.0
 10
1.129236
 20
55.010751
 30
0.0
 10
1.589422
 20
53.319543
 30
0.0
 10
2.053429
 20
51.628332
 30
0.0
 10
2.522154
 20
49.824370
 30
0.0
 10
3.005572
 20
48.020414
 30
0.0
 10
3.251845
 20
47.530714
 30
0.0
 10
4.009352
 20
46.817987
 30
0.0
 10
4.976468
 20
46.349340
 30
0.0
 10
6.651895
 20
45.319384
 30
0.0
 10
7.638372
 20
44.707605
 30
0.0
 10
8.391219
 20
44.412497
 30
0.0
 10
9.092656
 20
44.074256
 30
0.0
 10
9.508631
 20
43.736013
 30
0.0
 10
10.459161
 20
43.172551
 30
0.0
 10
11.412567
 20
42.608815
 30
0.0
 10
11.699355
 20
42.428345
 30
0.0
 10
12.551293
 20
41.945369
 30
0.0
 10
13.690481
 20
41.392708
 30
0.0
 10
15.254409
 20
40.446465
 30
0.0
 10
15.981505
 20
40.000116
 30
0.0
 10
16.747118
 20
39.564297
 30
0.0
 10
17.864118
 20
39.043151
 30
0.0
 10
19.625668
 20
37.873151
 30
0.0
 10
21.105985
 20
36.619492
 30
0.0
 10
21.507488
 20
36.022428
 30
0.0
 10
22.711991
 20
34.139780
 30
0.0
 10
23.318021
 20
33.070180
 30
0.0
 10
23.629716
 20
32.597323
 30
0.0
 10
24.088575
 20
31.784794
 30
0.0
 10
24.547436
 20
30.979851
 30
0.0
 10
24.834223
 20
30.601258
 30
0.0
 10
25.235726
 20
23.471041
 30
0.0
 10
25.595327
 20
16.273688
 30
0.0
 10
26.148346
 20
14.478086
 30
0.0
 10
26.641205
 20
12.843229
 30
0.0
 10
26.978107
 20
11.715751
 30
0.0
 10
27.309424
 20
10.588274
 30
0.0
 10
27.759456
 20
9.009805
 30
0.0
 10
28.221253
 20
7.431336
 30
0.0
 10
28.690223
 20
6.603268
 30
0.0
 10
30.316686
 20
4.725417
 30
0.0
 10
30.512616
 20
4.411304
 30
0.0
 10
30.856761
 20
3.967397
 30
0.0
 10
31.200906
 20
-6.204005
 30
0.0
 10
31.200906
 20
-16.245613
 30
0.0
 10
40.378106
 20
-16.245613
 30
0.0
 10
49.555310
 20
-16.245613
 30
0.0
 10
49.555310
 20
-6.538551
 30
0.0
  0
LWPOLYLINE
  5
101
100
AcDbEntity
  8
Layer_1
 62
7
100
AcDbPolyline
 90
6
 70
0
 10
42.213550
 20
-15.674762
 30
0.0
 10
41.869405
 20
-15.199697
 30
0.0
 10
42.541306
 20
-13.765134
 30
0.0
 10
42.901839
 20
-14.892640
 30
0.0
 10
42.557692
 20
-16.020117
 30
0.0
 10
42.213550
 20
-15.674762
 30
0.0
  0
LWPOLYLINE
  5
102
100
AcDbEntity
  8
Layer_1
 62
7
100
AcDbPolyline
 90
4
 70
0
 10
40.421278
 20
-15.628082
 30
0.0
 10
41.359401
 20
-15.558204
 30
0.0
 10
40.913383
 20
-16.020117
 30
0.0
 10
40.421278
 20
-15.628082
 30
0.0
  0
LWPOLYLINE
  5
103
100
AcDbEntity
  8
Layer_1
 62
7
100
AcDbPolyline
 90
20
 70
0
 10
38.622639
 20
-13.370559
 30
0.0
 10
38.919480
 20
-8.860648
 30
0.0
 10
39.239015
 20
-6.323837
 30
0.0
 10
39.565176
 20
-5.083639
 30
0.0
 10
39.913314
 20
-3.843386
 30
0.0
 10
40.343732
 20
-3.166899
 30
0.0
 10
40.882389
 20
-2.497581
 30
0.0
 10
42.108495
 20
-3.688163
 30
0.0
 10
42.435458
 20
-4.294405
 30
0.0
 10
43.131269
 20
-9.939837
 30
0.0
 10
43.360701
 20
-11.059215
 30
0.0
 10
43.590128
 20
-11.510234
 30
0.0
 10
43.245984
 20
-11.961226
 30
0.0
 10
42.901839
 20
-12.168800
 30
0.0
 10
42.198044
 20
-12.528323
 30
0.0
 10
41.370496
 20
-12.997207
 30
0.0
 10
40.983749
 20
-13.314171
 30
0.0
 10
39.460390
 20
-14.853608
 30
0.0
 10
38.681821
 20
-15.325822
 30
0.0
 10
38.622639
 20
-13.370559
 30
0.0
  0
LWPOLYLINE
  5
104
100
AcDbEntity
  8
Layer_1
 62
7
100
AcDbPolyline
 90
7
 70
0
 10
44.507850
 20
1.890552
 30
0.0
 10
44.163705
 20
2.326528
 30
0.0
 10
44.404955
 20
3.966719
 30
0.0
 10
45.183414
 20
4.499922
 30
0.0
 10
45.512919
 20
1.828632
 30
0.0
 10
44.939345
 20
1.357406
 30
0.0
 10
44.507850
 20
1.890552
 30
0.0
  0
LWPOLYLINE
  5
105
100
AcDbEntity
  8
Layer_1
 62
7
100
AcDbPolyline
 90
7
 70
0
 10
36.218154
 20
1.925321
 30
0.0
 10
36.046080
 20
3.548664
 30
0.0
 10
37.429852
 20
4.084575
 30
0.0
 10
37.858909
 20
2.706738
 30
0.0
 10
37.383144
 20
2.019471
 30
0.0
 10
37.047365
 20
1.556062
 30
0.0
 10
36.218154
 20
1.925321
 30
0.0
  0
LWPOLYLINE
  5
106
100
AcDbEntity
  8
Layer_1
 62
7
100
AcDbPolyline
 90
29
 70
0
 10
39.500429
 20
5.171103
 30
0.0
 10
39.154481
 20
5.403146
 30
0.0
 10
38.028239
 20
5.638773
 30
0.0
 10
37.028287
 20
6.426766
 30
0.0
 10
36.738216
 20
6.980373
 30
0.0
 10
36.018936
 20
9.119025
 30
0.0
 10
35.732147
 20
9.464267
 30
0.0
 10
35.691775
 20
9.633375
 30
0.0
 10
36.237810
 20
10.870129
 30
0.0
 10
36.721088
 20
11.941219
 30
0.0
 10
36.978057
 20
12.444082
 30
0.0
 10
37.739664
 20
13.174022
 30
0.0
 10
38.542668
 20
13.544805
 30
0.0
 10
39.403031
 20
13.847545
 30
0.0
 10
40.148679
 20
14.214124
 30
0.0
 10
40.722254
 20
14.421698
 30
0.0
 10
41.295828
 20
14.221292
 30
0.0
 10
42.098832
 20
13.872832
 30
0.0
 10
42.901839
 20
13.509499
 30
0.0
 10
43.303342
 20
13.287052
 30
0.0
 10
44.650451
 20
11.973336
 30
0.0
 10
44.959072
 20
11.264760
 30
0.0
 10
45.398461
 20
10.362778
 30
0.0
 10
44.802910
 20
7.246142
 30
0.0
 10
44.507850
 20
6.423012
 30
0.0
 10
43.360701
 20
5.627400
 30
0.0
 10
42.213550
 20
5.169607
 30
0.0
 10
39.500429
 20
5.172429
 30
0.0
 10
39.500429
 20
5.171103
 30
0.0
  0
LWPOLYLINE
  5
107
100
AcDbEntity
  8
Layer_1
 62
7
100
AcDbPolyline
 90
18
 70
0
 10
49.318266
 20
10.362778
 30
0.0
 10
48.830044
 20
11.321120
 30
0.0
 10
48.342053
 20
12.417638
 30
0.0
 10
48.010733
 20
14.841735
 30
0.0
 10
47.686508
 20
17.127622
 30
0.0
 10
47.490439
 20
18.826727
 30
0.0
 10
47.490439
 20
20.525829
 30
0.0
 10
49.842095
 20
20.461564
 30
0.0
 10
52.193754
 20
20.397296
 30
0.0
 10
52.112347
 20
19.269821
 30
0.0
 10
51.841702
 20
18.026105
 30
0.0
 10
51.372124
 20
15.940279
 30
0.0
 10
50.913631
 20
13.970679
 30
0.0
 10
50.577818
 20
12.730453
 30
0.0
 10
50.246486
 20
11.490256
 30
0.0
 10
49.895847
 20
10.531886
 30
0.0
 10
49.620269
 20
9.968175
 30
0.0
 10
49.318266
 20
10.362778
 30
0.0
  0
LWPOLYLINE
  5
108
100
AcDbEntity
  8
Layer_1
 62
7
100
AcDbPolyline
 90
13
 70
0
 10
33.495206
 20
14.773262
 30
0.0
 10
33.295409
 20
15.549153
 30
0.0
 10
32.933716
 20
16.958503
 30
0.0
 10
32.645974
 20
18.987955
 30
0.0
 10
33.208417
 20
19.608065
 30
0.0
 10
34.625105
 20
19.464899
 30
0.0
 10
35.198535
 20
18.619294
 30
0.0
 10
34.866820
 20
17.804109
 30
0.0
 10
34.524769
 20
16.169263
 30
0.0
 10
34.156769
 20
14.647194
 30
0.0
 10
33.954068
 20
14.182882
 30
0.0
 10
33.724636
 20
13.857987
 30
0.0
 10
33.495206
 20
14.773262
 30
0.0
  0
LWPOLYLINE
  5
109
100
AcDbEntity
  8
Layer_1
 62
7
100
AcDbPolyline
 90
4
 70
0
 10
41.323791
 20
14.850921
 30
0.0
 10
41.629584
 20
15.409157
 30
0.0
 10
41.919562
 20
14.650665
 30
0.0
 10
41.323791
 20
14.850921
 30
0.0
  0
LWPOLYLINE
  5
10a
100
AcDbEntity
  8
Layer_1
 62
7
100
AcDbPolyline
 90
9
 70
0
 10
39.398908
 20
15.098159
 30
0.0
 10
40.084954
 20
15.549153
 30
0.0
 10
40.378106
 20
15.887416
 30
0.0
 10
40.722254
 20
16.225654
 30
0.0
 10
41.066398
 20
15.887416
 30
0.0
 10
40.722254
 20
15.549153
 30
0.0
 10
40.378106
 20
15.227465
 30
0.0
 10
39.976606
 20
14.802627
 30
0.0
 10
39.398908
 20
15.098159
 30
0.0
  0
LWPOLYLINE
  5
10b
100
AcDbEntity
  8
Layer_1
 62
7
100
AcDbPolyline
 90
10
 70
0
 10
44.574325
 20
15.774660
 30
0.0
 10
44.276532
 20
16.225654
 30
0.0
 10
43.965393
 20
16.747799
 30
0.0
 10
43.366947
 20
17.797025
 30
0.0
 10
43.847171
 20
19.493988
 30
0.0
 10
44.590521
 20
18.919948
 30
0.0
 10
44.737277
 20
17.663175
 30
0.0
 10
44.966709
 20
17.127622
 30
0.0
 10
45.196139
 20
16.225654
 30
0.0
 10
44.574325
 20
15.774660
 30
0.0
  0
LWPOLYLINE
  5
10c
100
AcDbEntity
  8
Layer_1
 62
7
100
AcDbPolyline
 90
10
 70
0
 10
40.839593
 20
20.221932
 30
0.0
 10
40.378106
 20
20.988614
 30
0.0
 10
43.413336
 20
23.779718
 30
0.0
 10
43.901518
 20
23.046861
 30
0.0
 10
44.311610
 20
22.314003
 30
0.0
 10
44.048990
 20
21.299276
 30
0.0
 10
43.590128
 20
20.960445
 30
0.0
 10
42.787124
 20
20.479355
 30
0.0
 10
41.984120
 20
20.013776
 30
0.0
 10
40.839593
 20
20.221932
 30
0.0
  0
LWPOLYLINE
  5
10d
100
AcDbEntity
  8
Layer_1
 62
7
100
AcDbPolyline
 90
27
 70
0
 10
32.842793
 20
20.508108
 30
0.0
 10
31.955675
 20
20.961035
 30
0.0
 10
31.676888
 20
21.412024
 30
0.0
 10
31.225851
 20
23.441475
 30
0.0
 10
30.756995
 20
25.470941
 30
0.0
 10
30.281265
 20
27.853940
 30
0.0
 10
30.856425
 20
32.831406
 30
0.0
 10
31.200906
 20
33.701497
 30
0.0
 10
31.506352
 20
34.533229
 30
0.0
 10
31.976540
 20
35.478555
 30
0.0
 10
32.482330
 20
36.458871
 30
0.0
 10
33.377767
 20
36.206141
 30
0.0
 10
34.136031
 20
35.618201
 30
0.0
 10
36.490633
 20
33.443662
 30
0.0
 10
37.496950
 20
32.574022
 30
0.0
 10
41.525261
 20
28.612150
 30
0.0
 10
40.091320
 20
26.356757
 30
0.0
 10
39.689820
 20
25.751247
 30
0.0
 10
38.944172
 20
24.904509
 30
0.0
 10
37.916654
 20
23.609471
 30
0.0
 10
37.400436
 20
22.990487
 30
0.0
 10
37.166087
 20
22.663450
 30
0.0
 10
36.854390
 20
22.156085
 30
0.0
 10
36.253541
 20
21.101923
 30
0.0
 10
35.964391
 20
20.228087
 30
0.0
 10
34.787154
 20
20.367104
 30
0.0
 10
32.842793
 20
20.508108
 30
0.0
  0
LWPOLYLINE
  5
10e
100
AcDbEntity
  8
Layer_1
 62
7
100
AcDbPolyline
 90
13
 70
0
 10
47.072979
 20
21.806641
 30
0.0
 10
46.809745
 20
22.314003
 30
0.0
 10
46.233898
 20
25.479407
 30
0.0
 10
46.930406
 20
25.696433
 30
0.0
 10
47.490439
 20
25.899789
 30
0.0
 10
48.924379
 20
26.265151
 30
0.0
 10
50.473029
 20
26.597916
 30
0.0
 10
51.562824
 20
26.928858
 30
0.0
 10
52.537899
 20
27.089045
 30
0.0
 10
52.537899
 20
24.288119
 30
0.0
 10
52.377856
 20
21.329897
 30
0.0
 10
49.682056
 20
21.235934
 30
0.0
 10
47.072979
 20
21.806641
 30
0.0
  0
LWPOLYLINE
  5
10f
100
AcDbEntity
  8
Layer_1
 62
7
100
AcDbPolyline
 90
8
 70
0
 10
38.772098
 20
22.054006
 30
0.0
 10
39.173602
 20
22.719105
 30
0.0
 10
40.033964
 20
23.777080
 30
0.0
 10
42.770236
 20
26.297745
 30
0.0
 10
42.535229
 20
24.987243
 30
0.0
 10
41.560155
 20
24.044632
 30
0.0
 10
39.455163
 20
22.160149
 30
0.0
 10
38.772098
 20
22.054006
 30
0.0
  0
LWPOLYLINE
  5
110
100
AcDbEntity
  8
Layer_1
 62
7
100
AcDbPolyline
 90
22
 70
0
 10
45.218787
 20
26.801647
 30
0.0
 10
44.629750
 20
27.703629
 30
0.0
 10
44.262957
 20
28.176876
 30
0.0
 10
44.048990
 20
28.515119
 30
0.0
 10
44.393135
 20
28.853360
 30
0.0
 10
44.737277
 20
29.051500
 30
0.0
 10
45.482928
 20
29.545620
 30
0.0
 10
46.402013
 20
30.119090
 30
0.0
 10
47.243210
 20
30.540730
 30
0.0
 10
48.037648
 20
31.009340
 30
0.0
 10
48.491126
 20
31.333803
 30
0.0
 10
48.941685
 20
31.650780
 30
0.0
 10
49.750068
 20
32.115552
 30
0.0
 10
50.561378
 20
32.587806
 30
0.0
 10
51.620177
 20
32.461278
 30
0.0
 10
51.809912
 20
32.010286
 30
0.0
 10
52.539415
 20
28.247068
 30
0.0
 10
51.505465
 20
27.826847
 30
0.0
 10
50.473029
 20
27.506813
 30
0.0
 10
48.408161
 20
27.061610
 30
0.0
 10
46.343291
 20
26.578595
 30
0.0
 10
45.218787
 20
26.801647
 30
0.0
  0
LWPOLYLINE
  5
111
100
AcDbEntity
  8
Layer_1
 62
7
100
AcDbPolyline
 90
45
 70
0
 10
42.758730
 20
29.859502
 30
0.0
 10
42.143257
 20
30.341004
 30
0.0
 10
40.492581
 20
31.702557
 30
0.0
 10
39.146596
 20
32.912269
 30
0.0
 10
37.286497
 20
34.547103
 30
0.0
 10
35.010694
 20
36.608141
 30
0.0
 10
34.412928
 20
37.316874
 30
0.0
 10
34.068780
 20
37.729201
 30
0.0
 10
34.527640
 20
39.129277
 30
0.0
 10
35.330646
 20
40.020346
 30
0.0
 10
35.732147
 20
40.609507
 30
0.0
 10
36.512805
 20
41.392474
 30
0.0
 10
37.774671
 20
42.638699
 30
0.0
 10
39.029471
 20
43.878919
 30
0.0
 10
40.233978
 20
45.025644
 30
0.0
 10
41.066398
 20
45.976222
 30
0.0
 10
42.662054
 20
47.569423
 30
0.0
 10
43.819558
 20
46.497504
 30
0.0
 10
44.163705
 20
46.072508
 30
0.0
 10
44.507850
 20
45.621517
 30
0.0
 10
44.837974
 20
45.175818
 30
0.0
 10
45.314763
 20
44.395005
 30
0.0
 10
45.755193
 20
43.568238
 30
0.0
 10
46.328629
 20
42.552167
 30
0.0
 10
46.797499
 20
41.706561
 30
0.0
 10
47.226632
 20
41.030078
 30
0.0
 10
47.707934
 20
40.353594
 30
0.0
 10
47.949299
 20
40.049855
 30
0.0
 10
48.408161
 20
39.226122
 30
0.0
 10
48.867020
 20
38.436887
 30
0.0
 10
49.332126
 20
37.640575
 30
0.0
 10
49.930575
 20
36.591346
 30
0.0
 10
50.243602
 20
36.069192
 30
0.0
 10
50.581063
 20
35.451340
 30
0.0
 10
50.997533
 20
34.676349
 30
0.0
 10
49.187628
 20
32.912269
 30
0.0
 10
48.725938
 20
32.587806
 30
0.0
 10
47.914631
 20
32.115552
 30
0.0
 10
47.111626
 20
31.664561
 30
0.0
 10
46.343291
 20
31.221055
 30
0.0
 10
45.574955
 20
30.777551
 30
0.0
 10
44.771951
 20
30.326563
 30
0.0
 10
43.960641
 20
29.854309
 30
0.0
 10
42.758730
 20
29.859474
 30
0.0
 10
42.758730
 20
29.859502
 30
0.0
  0
LWPOLYLINE
  5
112
100
AcDbEntity
  8
Layer_1
 62
7
100
AcDbPolyline
 90
14
 70
0
 10
28.474128
 20
35.843697
 30
0.0
 10
28.677176
 20
39.000623
 30
0.0
 10
28.903092
 20
39.086046
 30
0.0
 10
30.083320
 20
38.679810
 30
0.0
 10
31.260034
 20
38.526394
 30
0.0
 10
31.113990
 20
37.479146
 30
0.0
 10
30.764023
 20
36.306922
 30
0.0
 10
30.298088
 20
35.223590
 30
0.0
 10
29.825879
 20
34.265236
 30
0.0
 10
29.465044
 20
33.476005
 30
0.0
 10
29.110503
 20
32.686773
 30
0.0
 10
28.883737
 20
32.292153
 30
0.0
 10
28.677176
 20
32.461278
 30
0.0
 10
28.474128
 20
35.843697
 30
0.0
  0
LWPOLYLINE
  5
113
100
AcDbEntity
  8
Layer_1
 62
7
100
AcDbPolyline
 90
41
 70
0
 10
22.597221
 20
37.873416
 30
0.0
 10
22.124400
 20
38.636469
 30
0.0
 10
21.794275
 20
39.106299
 30
0.0
 10
21.607668
 20
39.451612
 30
0.0
 10
21.109734
 20
40.231456
 30
0.0
 10
20.514971
 20
41.118201
 30
0.0
 10
20.081165
 20
41.897981
 30
0.0
 10
19.600670
 20
42.695372
 30
0.0
 10
19.270545
 20
43.165199
 30
0.0
 10
19.083938
 20
43.510520
 30
0.0
 10
18.586004
 20
44.290362
 30
0.0
 10
17.991241
 20
45.177105
 30
0.0
 10
17.553225
 20
45.975726
 30
0.0
 10
17.181766
 20
46.667447
 30
0.0
 10
16.746815
 20
47.231183
 30
0.0
 10
16.311864
 20
47.794922
 30
0.0
 10
15.943810
 20
48.471403
 30
0.0
 10
15.569502
 20
49.147889
 30
0.0
 10
15.106427
 20
49.824370
 30
0.0
 10
14.681945
 20
50.500860
 30
0.0
 10
14.257463
 20
51.177341
 30
0.0
 10
13.776160
 20
51.853822
 30
0.0
 10
13.534795
 20
52.175962
 30
0.0
 10
13.176838
 20
52.849911
 30
0.0
 10
12.775336
 20
53.824371
 30
0.0
 10
13.477437
 20
54.517675
 30
0.0
 10
14.223085
 20
54.768734
 30
0.0
 10
15.599665
 20
55.236247
 30
0.0
 10
16.976245
 20
55.698230
 30
0.0
 10
17.893965
 20
56.025478
 30
0.0
 10
18.811685
 20
56.339013
 30
0.0
 10
21.479681
 20
56.885108
 30
0.0
 10
22.023705
 20
54.418827
 30
0.0
 10
22.218136
 20
53.432288
 30
0.0
 10
22.716141
 20
47.231183
 30
0.0
 10
23.210001
 20
41.030078
 30
0.0
 10
23.413962
 20
39.620736
 30
0.0
 10
23.609955
 20
37.121289
 30
0.0
 10
23.792269
 20
36.031183
 30
0.0
 10
23.266092
 20
36.633030
 30
0.0
 10
22.597221
 20
37.873416
 30
0.0
  0
LWPOLYLINE
  5
114
100
AcDbEntity
  8
Layer_1
 62
7
100
AcDbPolyline
 90
108
 70
0
 10
19.417006
 20
38.436887
 30
0.0
 10
18.958146
 20
38.775131
 30
0.0
 10
18.507589
 20
39.092108
 30
0.0
 10
17.680037
 20
39.561015
 30
0.0
 10
16.976245
 20
39.893159
 30
0.0
 10
16.230597
 20
40.373087
 30
0.0
 10
15.181774
 20
40.964179
 30
0.0
 10
14.575388
 20
41.255570
 30
0.0
 10
14.148419
 20
41.572548
 30
0.0
 10
13.320867
 20
42.041455
 30
0.0
 10
12.617075
 20
42.355664
 30
0.0
 10
11.835955
 20
42.795555
 30
0.0
 10
10.925434
 20
43.404591
 30
0.0
 10
10.444689
 20
43.736013
 30
0.0
 10
10.091555
 20
43.905137
 30
0.0
 10
8.556310
 20
44.637992
 30
0.0
 10
8.257904
 20
44.848891
 30
0.0
 10
7.454899
 20
45.345179
 30
0.0
 10
6.651895
 20
45.810764
 30
0.0
 10
6.300550
 20
45.990960
 30
0.0
 10
5.822523
 20
46.315425
 30
0.0
 10
5.045581
 20
46.780257
 30
0.0
 10
3.304637
 20
48.659470
 30
0.0
 10
2.968366
 20
49.598878
 30
0.0
 10
2.507351
 20
51.290086
 30
0.0
 10
2.064271
 20
52.981300
 30
0.0
 10
1.599132
 20
54.728885
 30
0.0
 10
1.074864
 20
56.622536
 30
0.0
 10
0.738579
 20
58.478673
 30
0.0
 10
0.986941
 20
60.324519
 30
0.0
 10
1.493628
 20
61.116604
 30
0.0
 10
1.934058
 20
61.943371
 30
0.0
 10
2.507496
 20
62.959441
 30
0.0
 10
2.980578
 20
63.805047
 30
0.0
 10
3.325159
 20
64.481528
 30
0.0
 10
3.693213
 20
65.158015
 30
0.0
 10
4.128164
 20
65.721753
 30
0.0
 10
4.535256
 20
66.285490
 30
0.0
 10
5.014645
 20
67.074721
 30
0.0
 10
5.501365
 20
67.863953
 30
0.0
 10
5.851044
 20
68.550080
 30
0.0
 10
6.672279
 20
69.367497
 30
0.0
 10
7.340185
 20
69.668530
 30
0.0
 10
9.175624
 20
70.118900
 30
0.0
 10
11.011065
 20
70.561122
 30
0.0
 10
12.961220
 20
71.020879
 30
0.0
 10
14.911375
 20
71.494386
 30
0.0
 10
15.943810
 20
71.821896
 30
0.0
 10
16.976245
 20
72.173955
 30
0.0
 10
17.893965
 20
72.373847
 30
0.0
 10
18.811685
 20
72.152647
 30
0.0
 10
19.377040
 20
71.791987
 30
0.0
 10
20.080357
 20
71.225290
 30
0.0
 10
20.545715
 20
70.476278
 30
0.0
 10
21.150680
 20
67.994500
 30
0.0
 10
21.611266
 20
65.834498
 30
0.0
 10
21.794275
 20
65.018334
 30
0.0
 10
21.794275
 20
64.202165
 30
0.0
 10
19.327903
 20
64.365058
 30
0.0
 10
16.785054
 20
64.730233
 30
0.0
 10
15.337954
 20
64.932519
 30
0.0
 10
12.367062
 20
65.192268
 30
0.0
 10
9.512350
 20
65.176097
 30
0.0
 10
8.257904
 20
64.690849
 30
0.0
 10
7.913759
 20
64.481528
 30
0.0
 10
7.569614
 20
64.221398
 30
0.0
 10
6.629405
 20
63.108153
 30
0.0
 10
5.823930
 20
62.040780
 30
0.0
 10
5.573952
 20
61.857426
 30
0.0
 10
4.969656
 20
61.155483
 30
0.0
 10
4.553835
 20
60.422628
 30
0.0
 10
4.357594
 20
59.971637
 30
0.0
 10
4.569232
 20
59.520645
 30
0.0
 10
5.045884
 20
58.731414
 30
0.0
 10
5.823094
 20
58.224052
 30
0.0
 10
5.899571
 20
58.146576
 30
0.0
 10
6.709252
 20
56.940178
 30
0.0
 10
7.569614
 20
55.813129
 30
0.0
 10
8.487334
 20
55.262889
 30
0.0
 10
9.405055
 20
54.663457
 30
0.0
 10
9.616254
 20
54.334267
 30
0.0
 10
9.979049
 20
53.655907
 30
0.0
 10
10.570853
 20
52.745994
 30
0.0
 10
11.011065
 20
52.184135
 30
0.0
 10
11.252430
 20
51.853825
 30
0.0
 10
11.733732
 20
51.177341
 30
0.0
 10
12.152823
 20
50.500857
 30
0.0
 10
12.617075
 20
49.824370
 30
0.0
 10
13.103769
 20
49.147889
 30
0.0
 10
13.305365
 20
48.844148
 30
0.0
 10
13.764225
 20
48.020417
 30
0.0
 10
14.223085
 20
47.207885
 30
0.0
 10
14.523344
 20
46.735025
 30
0.0
 10
15.124754
 20
45.821841
 30
0.0
 10
15.627499
 20
45.088981
 30
0.0
 10
15.829095
 20
44.761947
 30
0.0
 10
16.129354
 20
44.254585
 30
0.0
 10
16.730764
 20
43.341401
 30
0.0
 10
17.190686
 20
42.608541
 30
0.0
 10
17.664535
 20
41.819309
 30
0.0
 10
18.138384
 20
41.030078
 30
0.0
 10
18.598306
 20
40.297217
 30
0.0
 10
19.199716
 20
39.384036
 30
0.0
 10
19.499975
 20
38.876671
 30
0.0
 10
19.729405
 20
38.549635
 30
0.0
 10
19.958835
 20
38.324139
 30
0.0
 10
19.417006
 20
38.436887
 30
0.0
 10
19.417006
 20
38.436887
 30
0.0
  0
LWPOLYLINE
  5
115
100
AcDbEntity
  8
Layer_1
 62
7
100
AcDbPolyline
 90
34
 70
0
 10
30.665595
 20
39.482741
 30
0.0
 10
29.365465
 20
39.907434
 30
0.0
 10
28.878205
 20
40.200734
 30
0.0
 10
28.538469
 20
40.903673
 30
0.0
 10
28.827487
 20
42.495948
 30
0.0
 10
29.150714
 20
43.510520
 30
0.0
 10
29.490108
 20
44.750743
 30
0.0
 10
29.819284
 20
45.990960
 30
0.0
 10
30.268384
 20
47.682171
 30
0.0
 10
30.742266
 20
49.373379
 30
0.0
 10
31.220960
 20
50.613605
 30
0.0
 10
31.685882
 20
51.853822
 30
0.0
 10
32.019048
 20
52.643056
 30
0.0
 10
32.373590
 20
53.432288
 30
0.0
 10
32.580998
 20
53.714155
 30
0.0
 10
33.703446
 20
54.342895
 30
0.0
 10
34.412928
 20
53.855920
 30
0.0
 10
34.764272
 20
53.657781
 30
0.0
 10
35.232684
 20
53.357945
 30
0.0
 10
36.143204
 20
52.752121
 30
0.0
 10
36.936657
 20
52.257146
 30
0.0
 10
37.510235
 20
51.853822
 30
0.0
 10
38.083809
 20
51.408416
 30
0.0
 10
38.416555
 20
51.177341
 30
0.0
 10
38.932770
 20
50.882230
 30
0.0
 10
39.861894
 20
50.291138
 30
0.0
 10
40.607539
 20
49.824370
 30
0.0
 10
41.295828
 20
49.373379
 30
0.0
 10
41.754687
 20
48.471403
 30
0.0
 10
41.525261
 20
48.158540
 30
0.0
 10
38.772098
 20
45.144164
 30
0.0
 10
36.018936
 20
42.292333
 30
0.0
 10
34.528221
 20
40.684070
 30
0.0
 10
30.665595
 20
39.482741
 30
0.0
  0
LWPOLYLINE
  5
116
100
AcDbEntity
  8
Layer_1
 62
7
100
AcDbPolyline
 90
19
 70
0
 10
25.388801
 20
40.184472
 30
0.0
 10
25.104070
 20
44.637992
 30
0.0
 10
24.765502
 20
48.473533
 30
0.0
 10
24.508483
 20
52.757932
 30
0.0
 10
24.432721
 20
56.927455
 30
0.0
 10
25.924016
 20
56.886222
 30
0.0
 10
28.390390
 20
56.703286
 30
0.0
 10
29.365465
 20
56.561579
 30
0.0
 10
29.365465
 20
55.560670
 30
0.0
 10
29.185156
 20
54.559760
 30
0.0
 10
28.715702
 20
51.578827
 30
0.0
 10
28.241086
 20
48.478278
 30
0.0
 10
27.751483
 20
46.498325
 30
0.0
 10
27.285309
 20
44.637992
 30
0.0
 10
26.968443
 20
43.623268
 30
0.0
 10
26.598248
 20
42.608541
 30
0.0
 10
26.382876
 20
42.168647
 30
0.0
 10
25.701109
 20
39.451612
 30
0.0
 10
25.388801
 20
40.184472
 30
0.0
  0
LWPOLYLINE
  5
117
100
AcDbEntity
  8
Layer_1
 62
7
100
AcDbPolyline
 90
34
 70
0
 10
42.951236
 20
50.827727
 30
0.0
 10
42.377659
 20
51.303949
 30
0.0
 10
41.353187
 20
51.866358
 30
0.0
 10
40.607539
 20
52.365440
 30
0.0
 10
40.033964
 20
52.755804
 30
0.0
 10
39.460390
 20
53.201210
 30
0.0
 10
39.109046
 20
53.432288
 30
0.0
 10
38.640631
 20
53.732127
 30
0.0
 10
37.730111
 20
54.337953
 30
0.0
 10
36.936657
 20
54.799985
 30
0.0
 10
36.264853
 20
55.229536
 30
0.0
 10
35.469045
 20
55.820630
 30
0.0
 10
34.998073
 20
56.138226
 30
0.0
 10
34.496183
 20
56.744877
 30
0.0
 10
34.835956
 20
57.674365
 30
0.0
 10
35.330646
 20
58.309421
 30
0.0
 10
35.904221
 20
59.111813
 30
0.0
 10
36.477798
 20
59.786806
 30
0.0
 10
37.609489
 20
60.873613
 30
0.0
 10
37.969094
 20
60.422628
 30
0.0
 10
38.300866
 20
59.971637
 30
0.0
 10
38.793141
 20
59.238776
 30
0.0
 10
39.818635
 20
57.652490
 30
0.0
 10
40.390863
 20
56.645588
 30
0.0
 10
40.850154
 20
55.912731
 30
0.0
 10
41.295828
 20
55.123496
 30
0.0
 10
41.797512
 20
54.334267
 30
0.0
 10
41.984120
 20
53.988949
 30
0.0
 10
42.314244
 20
53.519119
 30
0.0
 10
42.791033
 20
52.738309
 30
0.0
 10
43.226993
 20
51.911542
 30
0.0
 10
43.765964
 20
51.021588
 30
0.0
 10
43.630810
 20
50.446476
 30
0.0
 10
42.951236
 20
50.827727
 30
0.0
  0
LWPOLYLINE
  5
118
100
AcDbEntity
  8
Layer_1
 62
7
100
AcDbPolyline
 90
11
 70
0
 10
30.156593
 20
52.812178
 30
0.0
 10
30.874993
 20
55.912731
 30
0.0
 10
31.200906
 20
55.687235
 30
0.0
 10
31.545050
 20
55.461742
 30
0.0
 10
31.889195
 20
55.010751
 30
0.0
 10
31.703140
 20
54.559760
 30
0.0
 10
31.210126
 20
53.382611
 30
0.0
 10
30.593174
 20
51.900789
 30
0.0
 10
30.283187
 20
51.273979
 30
0.0
 10
30.144590
 20
50.951845
 30
0.0
 10
30.156593
 20
52.812178
 30
0.0
  0
LWPOLYLINE
  5
119
100
AcDbEntity
  8
Layer_1
 62
7
100
AcDbPolyline
 90
30
 70
0
 10
9.106867
 20
55.847024
 30
0.0
 10
8.459546
 20
56.138226
 30
0.0
 10
7.340185
 20
57.136844
 30
0.0
 10
7.109873
 20
57.491191
 30
0.0
 10
6.603430
 20
58.505921
 30
0.0
 10
6.145450
 20
59.520645
 30
0.0
 10
5.963604
 20
59.971637
 30
0.0
 10
6.170151
 20
60.422628
 30
0.0
 10
6.651895
 20
61.550100
 30
0.0
 10
7.106879
 20
62.677572
 30
0.0
 10
7.402695
 20
63.113650
 30
0.0
 10
8.331281
 20
63.699555
 30
0.0
 10
9.267248
 20
64.165453
 30
0.0
 10
9.742000
 20
64.481528
 30
0.0
 10
10.093345
 20
64.707026
 30
0.0
 10
10.896350
 20
64.932519
 30
0.0
 10
11.699355
 20
64.707026
 30
0.0
 10
12.165414
 20
64.481528
 30
0.0
 10
12.763536
 20
64.143287
 30
0.0
 10
13.319117
 20
63.805047
 30
0.0
 10
15.135101
 20
62.151222
 30
0.0
 10
15.667920
 20
60.838722
 30
0.0
 10
15.630996
 20
59.088690
 30
0.0
 10
15.132412
 20
57.890095
 30
0.0
 10
14.427144
 20
56.694046
 30
0.0
 10
13.993655
 20
56.366442
 30
0.0
 10
13.305365
 20
56.025478
 30
0.0
 10
12.617075
 20
55.691717
 30
0.0
 10
11.756712
 20
55.301892
 30
0.0
 10
9.106867
 20
55.847024
 30
0.0
  0
LWPOLYLINE
  5
11a
100
AcDbEntity
  8
Layer_1
 62
7
100
AcDbPolyline
 90
25
 70
0
 10
15.182265
 20
56.840404
 30
0.0
 10
15.771737
 20
57.667701
 30
0.0
 10
16.058525
 20
58.522027
 30
0.0
 10
16.287955
 20
59.069657
 30
0.0
 10
16.517385
 20
60.084381
 30
0.0
 10
16.313488
 20
61.099109
 30
0.0
 10
15.958948
 20
61.888343
 30
0.0
 10
15.589269
 20
62.677572
 30
0.0
 10
15.370235
 20
62.975150
 30
0.0
 10
14.775394
 20
63.781064
 30
0.0
 10
14.301405
 20
64.408178
 30
0.0
 10
19.270545
 20
64.003607
 30
0.0
 10
20.664349
 20
63.805047
 30
0.0
 10
22.058154
 20
63.805047
 30
0.0
 10
21.894782
 20
61.719219
 30
0.0
 10
21.559954
 20
59.520645
 30
0.0
 10
21.302256
 20
58.956907
 30
0.0
 10
20.702138
 20
58.433864
 30
0.0
 10
20.188265
 20
58.187876
 30
0.0
 10
18.926400
 20
57.736397
 30
0.0
 10
17.664535
 20
57.257297
 30
0.0
 10
16.497847
 20
56.903624
 30
0.0
 10
15.207638
 20
56.435144
 30
0.0
 10
14.981849
 20
56.219286
 30
0.0
 10
15.182265
 20
56.840404
 30
0.0
  0
LWPOLYLINE
  5
11b
100
AcDbEntity
  8
Layer_1
 62
7
100
AcDbPolyline
 90
17
 70
0
 10
32.007203
 20
57.763454
 30
0.0
 10
30.971479
 20
58.436703
 30
0.0
 10
31.687186
 20
60.873613
 30
0.0
 10
32.003910
 20
61.775593
 30
0.0
 10
32.341464
 20
62.677572
 30
0.0
 10
32.643961
 20
63.128560
 30
0.0
 10
33.716318
 20
63.143828
 30
0.0
 10
34.459339
 20
62.550343
 30
0.0
 10
35.278977
 20
62.084081
 30
0.0
 10
36.035324
 20
61.775593
 30
0.0
 10
36.018927
 20
60.422622
 30
0.0
 10
35.560068
 20
59.786804
 30
0.0
 10
34.986496
 20
59.111810
 30
0.0
 10
34.412919
 20
58.363148
 30
0.0
 10
33.326420
 20
57.498360
 30
0.0
 10
32.007198
 20
57.763451
 30
0.0
 10
32.007203
 20
57.763454
 30
0.0
  0
LWPOLYLINE
  5
11c
100
AcDbEntity
  8
Layer_1
 62
7
100
AcDbPolyline
 90
19
 70
0
 10
26.191685
 20
58.853227
 30
0.0
 10
25.646144
 20
59.069657
 30
0.0
 10
25.331901
 20
60.021251
 30
0.0
 10
25.677741
 20
61.092349
 30
0.0
 10
26.162325
 20
62.508450
 30
0.0
 10
26.619492
 20
63.805047
 30
0.0
 10
26.933473
 20
64.729370
 30
0.0
 10
28.732110
 20
65.849953
 30
0.0
 10
30.006984
 20
65.118566
 30
0.0
 10
30.971479
 20
64.652123
 30
0.0
 10
31.430335
 20
64.481528
 30
0.0
 10
31.889195
 20
63.692296
 30
0.0
 10
31.696409
 20
62.903070
 30
0.0
 10
31.200906
 20
61.662845
 30
0.0
 10
30.755491
 20
60.422628
 30
0.0
 10
30.299053
 20
59.378281
 30
0.0
 10
29.985315
 20
58.333940
 30
0.0
 10
28.126736
 20
58.485370
 30
0.0
 10
26.191685
 20
58.853227
 30
0.0
  0
LWPOLYLINE
  5
11d
100
AcDbEntity
  8
Layer_1
 62
7
100
AcDbPolyline
 90
4
 70
0
 10
5.190492
 20
59.126031
 30
0.0
 10
5.390029
 20
59.971637
 30
0.0
 10
5.734174
 20
59.295153
 30
0.0
 10
5.190492
 20
59.126031
 30
0.0
  0
LWPOLYLINE
  5
11e
100
AcDbEntity
  8
Layer_1
 62
7
100
AcDbPolyline
 90
15
 70
0
 10
22.840919
 20
61.380978
 30
0.0
 10
23.163876
 20
63.579551
 30
0.0
 10
23.859146
 20
67.610322
 30
0.0
 10
25.103528
 20
68.275692
 30
0.0
 10
26.096088
 20
67.656963
 30
0.0
 10
26.841736
 20
66.596371
 30
0.0
 10
26.638284
 20
65.834498
 30
0.0
 10
26.153446
 20
64.368783
 30
0.0
 10
25.699957
 20
62.903070
 30
0.0
 10
25.235726
 20
61.550100
 30
0.0
 10
24.772275
 20
60.197132
 30
0.0
 10
24.480958
 20
59.746141
 30
0.0
 10
23.519256
 20
59.295153
 30
0.0
 10
22.677546
 20
59.295153
 30
0.0
 10
22.840919
 20
61.380978
 30
0.0
  0
LWPOLYLINE
  5
11f
100
AcDbEntity
  8
Layer_1
 62
7
100
AcDbPolyline
 90
5
 70
0
 10
5.045884
 20
60.404182
 30
0.0
 10
5.529291
 20
61.324604
 30
0.0
 10
5.734174
 20
60.760868
 30
0.0
 10
5.390029
 20
60.197132
 30
0.0
 10
5.045884
 20
60.404182
 30
0.0
  0
LWPOLYLINE
  5
120
100
AcDbEntity
  8
Layer_1
 62
7
100
AcDbPolyline
 90
12
 70
0
 10
22.482565
 20
65.270762
 30
0.0
 10
22.276420
 20
66.059991
 30
0.0
 10
21.904787
 20
67.694831
 30
0.0
 10
21.594715
 20
69.442413
 30
0.0
 10
21.170248
 20
70.344393
 30
0.0
 10
21.170248
 20
70.773712
 30
0.0
 10
22.367850
 20
70.098430
 30
0.0
 10
23.451958
 20
69.556363
 30
0.0
 10
23.136086
 20
66.097577
 30
0.0
 10
22.941425
 20
65.251972
 30
0.0
 10
22.711995
 20
64.481528
 30
0.0
 10
22.482565
 20
65.270762
 30
0.0
  0
ENDSEC
  0
SECTION
  2
OBJECTS
  0
DICTIONARY
  5
C
330
0
100
AcDbDictionary
  3
ACAD_GROUP
350
D
  3
ACAD_MLINESTYLE
350
17
  0
DICTIONARY
  5
D
330
C
100
AcDbDictionary
  0
DICTIONARY
  5
1A
330
C
100
AcDbDictionary
  0
DICTIONARY
  5
17
330
C
100
AcDbDictionary
  3
STANDARD
350
18
  0
DICTIONARY
  5
19
330
C
100
AcDbDictionary
  0
ENDSEC
  0
EOF
